<svg xmlns="http://www.w3.org/2000/svg" viewBox="0 0 2418 3333" shape-rendering="geometricPrecision" text-rendering="geometricPrecision" image-rendering="optimizeQuality" fill-rule="evenodd" clip-rule="evenodd"><path d="M2146 1752H1086c-47 0-85-38-85-86 0-47 38-86 85-86h1059l-345-395c-31-35-28-89 7-120s88-28 119 7l469 537c29 33 28 82-1 114l-468 536c-31 35-84 39-119 7-35-31-38-85-7-120l345-395zm-996 1413c46 11 74 57 63 103s-57 74-103 63c-103-25-206-45-300-64C283 3163 0 3107 0 2357V928C0 217 301 160 798 67c97-18 202-38 312-64 46-11 92 17 103 63s-17 92-63 103c-116 28-222 48-320 66-411 77-659 123-659 693v1429c0 609 234 656 672 742 92 18 192 38 307 66z" fill-rule="nonzero"/></svg>