<svg xmlns="http://www.w3.org/2000/svg" width="20.48" height="17.547" viewBox="0 0 1.355 1.161" shape-rendering="geometricPrecision" text-rendering="geometricPrecision" image-rendering="optimizeQuality" fill-rule="evenodd" clip-rule="evenodd"><path d="M.711.026L.794.03.81.03l.52.566a.094.094 0 0 1-.008.133l-.457.408a.095.095 0 0 1-.119.006l.469-.418a.1.1 0 0 0 .008-.141L.71.026zm-.126.01l.502.546A.09.09 0 0 1 1.08.71l-.442.394a.091.091 0 0 1-.129-.007L.038.568V.553L0 0l.568.036h.017zM.221.107a.102.102 0 1 1-.004.204A.102.102 0 0 1 .22.108zm.09.385l.325.354-.065.06L.247.552.31.493zM.455.365L.779.72l-.064.06L.39.424l.065-.06zm.13-.122L.91.597.845.656.521.303l.064-.06z"/></svg>